<svg width="24" height="24" viewBox="0 0 24 24" fill="none" xmlns="http://www.w3.org/2000/svg">
<g id="Social/linkedin">
<path id="Combined-Shape" fill-rule="evenodd" clip-rule="evenodd" d="M7.60586 9.20419H4.01284V19.9997H7.60586V9.20419ZM7.84217 5.86471C7.81885 4.80621 7.06192 4 5.83277 4C4.60362 4 3.80005 4.80621 3.80005 5.86471C3.80005 6.90128 4.57987 7.7307 5.78613 7.7307H5.80909C7.06192 7.7307 7.84217 6.90128 7.84217 5.86471ZM20.5636 13.8099C20.5636 10.494 18.791 8.9507 16.4267 8.9507C14.519 8.9507 13.6649 9.99852 13.188 10.7336V9.20448H9.5946C9.64196 10.2175 9.5946 20 9.5946 20H13.188V13.9709C13.188 13.6483 13.2114 13.3264 13.3064 13.0954C13.566 12.4508 14.1573 11.7835 15.1499 11.7835C16.4506 11.7835 16.9706 12.7734 16.9706 14.2241V19.9997H20.5634L20.5636 13.8099Z" fill="#8B3C50"/>
</g>
</svg>
